<svg xmlns="http://www.w3.org/2000/svg" xmlns:xlink="http://www.w3.org/1999/xlink" id="Capa_1" x="0" y="0" version="1.1" viewBox="0 0 57 57" xml:space="preserve" style="enable-background:new 0 0 57 57"><path style="fill:#b5b59c" d="M47.89,46H9.11c-1.441,0-2.61-1.168-2.61-2.61V3.23C6.5,1.446,7.946,0,9.73,0H47.27	c1.784,0,3.23,1.446,3.23,3.23V43.39C50.5,44.832,49.332,46,47.89,46z"/><path style="fill:#8c846b" d="M44.306,57H12.694C10.93,57,9.5,55.57,9.5,53.806V46h38v7.806C47.5,55.57,46.07,57,44.306,57z"/><path style="fill:#21c6f7" d="M43.891,30H13.109c-1.441,0-2.609-1.168-2.609-2.609V5.752C10.5,4.785,11.285,4,12.252,4h32.495	C45.715,4,46.5,4.785,46.5,5.752v21.639C46.5,28.832,45.332,30,43.891,30z"/><rect style="fill:#6b5b4b" width="2" height="7" x="15.5" y="50"/><rect style="fill:#6b5b4b" width="2" height="7" x="19.5" y="50"/><rect style="fill:#6b5b4b" width="2" height="7" x="23.5" y="50"/><rect style="fill:#6b5b4b" width="2" height="7" x="27.5" y="50"/><rect style="fill:#6b5b4b" width="2" height="7" x="31.5" y="50"/><rect style="fill:#6b5b4b" width="2" height="7" x="35.5" y="50"/><rect style="fill:#6b5b4b" width="2" height="7" x="39.5" y="50"/><rect style="fill:#1081e0" width="7" height="2.013" x="11.5" y="39.987"/><rect style="fill:#d75a4a" width="7" height="2.013" x="11.5" y="37.987"/><rect style="fill:#ed8a19" width="7" height="2.013" x="11.5" y="36"/><rect style="fill:#a4e869" width="7" height="2.013" x="11.5" y="34"/><rect style="fill:#38454f" width="4" height="3" x="42.5" y="39"/><rect style="fill:#8c846b" width="10" height="2" x="36.5" y="32"/><rect style="fill:#8c846b" width="12" height="2" x="34.5" y="35"/><g><path style="fill:#c6e2f7" d="M14.5,13c0.256,0,0.512-0.098,0.707-0.293l4-4c0.391-0.391,0.391-1.023,0-1.414 s-1.023-0.391-1.414,0l-4,4c-0.391,0.391-0.391,1.023,0,1.414C13.988,12.902,14.244,13,14.5,13z"/><path style="fill:#c6e2f7" d="M15.793,14.293l-2,2c-0.391,0.391-0.391,1.023,0,1.414C13.988,17.902,14.244,18,14.5,18 s0.512-0.098,0.707-0.293l2-2c0.391-0.391,0.391-1.023,0-1.414S16.184,13.902,15.793,14.293z"/><path style="fill:#c6e2f7" d="M17.79,12.29C17.6,12.48,17.5,12.74,17.5,13c0,0.26,0.109,0.52,0.29,0.71 C17.97,13.89,18.229,14,18.5,14c0.27,0,0.52-0.11,0.71-0.29c0.18-0.19,0.29-0.45,0.29-0.71c0-0.26-0.11-0.52-0.29-0.71 C18.83,11.92,18.16,11.92,17.79,12.29z"/><path style="fill:#c6e2f7" d="M24.207,7.293c-0.391-0.391-1.023-0.391-1.414,0l-3,3c-0.391,0.391-0.391,1.023,0,1.414 C19.988,11.902,20.244,12,20.5,12s0.512-0.098,0.707-0.293l3-3C24.598,8.316,24.598,7.684,24.207,7.293z"/></g></svg>